<?xml version="1.0" standalone="no"?><!DOCTYPE svg PUBLIC "-//W3C//DTD SVG 1.1//EN" "http://www.w3.org/Graphics/SVG/1.1/DTD/svg11.dtd"><svg t="1594438854759" class="icon" viewBox="0 0 1024 1024" version="1.1" xmlns="http://www.w3.org/2000/svg" p-id="3725" xmlns:xlink="http://www.w3.org/1999/xlink" width="200" height="200"><defs><style type="text/css">@font-face { font-family: element-icons; src: url("chrome-extension://moombeodfomdpjnpocobemoiaemednkg/fonts/element-icons.woff") format("woff"), url("chrome-extension://moombeodfomdpjnpocobemoiaemednkg/fonts/element-icons.ttf ") format("truetype"); }
</style></defs><path d="M337.7 804.7h87v87h-87zM337.7 674.2h87v87h-87zM468.2 674.2h87v87h-87zM337.7 543.7h87v87h-87zM468.2 804.7h87v87h-87z" p-id="3726"></path><path d="M869.7 500.3l-297.1-301c-16.4-16.6-38.2-25.7-61.4-25.7-23.2 0-45 9.1-61.4 25.7l-297.1 301c-8.5 8.6-8.4 22.6 0.2 31.1 4.3 4.2 9.9 6.3 15.4 6.3 5.7 0 11.3-2.2 15.7-6.5l66.7-67.6v403.7c0 13.4 9.7 24.3 21.8 24.3 12 0 21.7-10.9 21.7-24.3v-438c0-2.9-0.6-5.6-1.5-8.2l188.4-190.9c16.1-16.3 44-16.3 60.1 0L730.5 422c-0.7 2.4-1.3 4.8-1.3 7.4v438c0 13.4 9.7 24.3 21.8 24.3 12 0 21.8-10.9 21.8-24.3V464.7l65.7 66.5c8.6 8.7 22.5 8.7 31.1 0.2 8.6-8.5 8.7-22.4 0.1-31.1z" p-id="3727"></path></svg>