<?xml version="1.0" standalone="no"?><!DOCTYPE svg PUBLIC "-//W3C//DTD SVG 1.1//EN" "http://www.w3.org/Graphics/SVG/1.1/DTD/svg11.dtd"><svg t="1596423252349" class="icon" viewBox="0 0 1024 1024" version="1.1" xmlns="http://www.w3.org/2000/svg" p-id="1191" xmlns:xlink="http://www.w3.org/1999/xlink" width="200" height="200"><defs><style type="text/css">@font-face { font-family: element-icons; src: url("chrome-extension://moombeodfomdpjnpocobemoiaemednkg/fonts/element-icons.woff") format("woff"), url("chrome-extension://moombeodfomdpjnpocobemoiaemednkg/fonts/element-icons.ttf ") format("truetype"); }
</style></defs><path d="M70.8833 192.5007l882.159616 0 0 73.535488L552.819712 266.036188l0 224.463872 363.471872 0 0 77.599744L552.819712 568.099804l0 285.903872 441.071616 0 0 65.343488L30.051328 919.347164l0-65.343488 441.071616 0L471.122944 568.100864 107.635712 568.100864l0-77.599744 363.488256 0L471.123968 266.037248 70.883328 266.037248 70.883328 192.500736zM442.0352 37.1251l77.5997-28.5757c21.7764 51.7284 43.5517 102.0959 65.3435 151.1035L503.2991 188.245C495.1235 163.7335 474.708 113.365 442.0352 37.1251z" p-id="1192"></path></svg>